<?xml version="1.0" encoding="UTF-8"?>
<svg version="1.1" xmlns="http://www.w3.org/2000/svg" width="512" height="512">
<path d="M0 0 C1.7899266 0.65308133 3.56265775 1.35431522 5.3203125 2.08984375 C6.38958984 2.53465088 7.45886719 2.97945801 8.56054688 3.43774414 C9.73681641 3.93266357 10.91308594 4.42758301 12.125 4.9375 C13.39892804 5.46970401 14.6730221 6.00151078 15.94726562 6.53295898 C18.76449505 7.70902603 21.58042337 8.88814398 24.39550781 10.06933594 C29.22734474 12.09642772 34.06286647 14.11464851 38.8984375 16.1328125 C58.38775584 24.27105155 77.853932 32.46339701 97.3074646 40.68676758 C110.54361211 46.28145606 123.78810248 51.85573485 137.04397583 57.40353394 C139.77049181 58.54491443 142.49648658 59.68753244 145.22241211 60.83032227 C152.78668186 63.99926201 160.35449509 67.15643198 167.953125 70.2421875 C169.09418701 70.70810303 170.23524902 71.17401855 171.41088867 71.65405273 C173.43119889 72.4767943 175.45456209 73.29210158 177.48168945 74.09790039 C178.334646 74.4458667 179.18760254 74.79383301 180.06640625 75.15234375 C181.1483728 75.5853479 181.1483728 75.5853479 182.25219727 76.02709961 C184 77 184 77 186 80 C186.1171875 82.8125 186.1171875 82.8125 185 86 C182.63264006 88.37521449 179.91169226 90.14991865 177.125 92 C175.47828191 93.13934731 173.83247848 94.28001749 172.1875 95.421875 C171.33285156 96.00775391 170.47820312 96.59363281 169.59765625 97.19726562 C165.37551945 100.12736508 161.25244657 103.18865436 157.125 106.25 C156.33456299 106.83346191 155.54412598 107.41692383 154.72973633 108.01806641 C148.46166687 112.64588727 142.22235723 117.31094768 136 122 C144.7965831 126.51206226 153.64121419 130.69653131 162.73864746 134.57113647 C165.99396149 135.95837887 169.24256338 137.3612127 172.4921875 138.76171875 C173.13337524 139.03766373 173.77456299 139.3136087 174.43518066 139.59791565 C180.2234667 142.09068083 185.9950066 144.61886285 191.75 147.1875 C192.57064941 147.54956543 193.39129883 147.91163086 194.23681641 148.28466797 C199.76449991 150.76449991 199.76449991 150.76449991 202 153 C202.60546875 155.703125 202.60546875 155.703125 202 159 C199.75250003 161.64560151 197.06678379 163.6541526 194.3125 165.75 C193.53737061 166.36270752 192.76224121 166.97541504 191.96362305 167.60668945 C189.65638915 169.42333607 187.33117631 171.21423291 185 173 C183.8223029 173.91457478 182.64515388 174.82985611 181.46875 175.74609375 C179.37457422 177.36596982 177.27434185 178.97804776 175.16796875 180.58203125 C171.79905193 183.15337467 168.45694069 185.75605191 165.125 188.375 C164.2575415 189.0568335 164.2575415 189.0568335 163.37255859 189.75244141 C158.47809121 193.60823763 153.61202569 197.49935072 148.76416016 201.41357422 C148.20132324 201.86619629 147.63848633 202.31881836 147.05859375 202.78515625 C146.4914415 203.26008011 145.92428925 203.73500397 145.33995056 204.22431946 C143 206 143 206 139.80357361 207.86177063 C133.35045028 211.76846414 133.35045028 211.76846414 129.27428246 217.89191628 C128.18809377 223.28039706 128.53758168 228.73569298 128.7578125 234.1953125 C128.77743552 235.95541296 128.79024609 237.71560119 128.79660034 239.47579956 C128.82675357 244.08776176 128.92837671 248.69498928 129.05181885 253.30529785 C129.24342701 260.68804518 129.3518455 268.07090394 129.41012192 275.45580673 C129.44468152 278.02343359 129.52602548 280.58651598 129.61209106 283.15286255 C129.88690305 296.03180276 129.88690305 296.03180276 125.64379883 300.9543457 C123.7837677 302.62055969 123.7837677 302.62055969 122 304 C121.09378906 304.87785156 120.18757813 305.75570313 119.25390625 306.66015625 C118.36574219 307.45292969 117.47757812 308.24570312 116.5625 309.0625 C115.51736293 310.00424789 114.47314218 310.94701337 113.4296875 311.890625 C112.87764648 312.38884766 112.32560547 312.88707031 111.75683594 313.40039062 C108.53357137 316.33519182 105.36303717 319.32626117 102.1875 322.3125 C100.81648493 323.60034418 99.44539086 324.88810427 98.07421875 326.17578125 C97.39536621 326.81338379 96.71651367 327.45098633 96.01708984 328.10791016 C92.85056572 331.0782033 89.67544103 334.03924612 86.5 337 C81.32587733 341.82541255 76.15996539 346.65945212 71 351.5 C62.72924359 359.2582758 54.43873914 366.99525696 46.14550781 374.72949219 C44.2843521 376.46533074 42.42340193 378.20138939 40.5625 379.9375 C39.95059814 380.50815186 39.33869629 381.07880371 38.70825195 381.66674805 C34.69987018 385.40696159 30.70255645 389.15871505 26.70996094 392.91577148 C24.05638332 395.40932657 21.39570423 397.89519908 18.73291016 400.37890625 C17.20489437 401.80832649 15.68573039 403.24719654 14.16796875 404.6875 C13.39066406 405.409375 12.61335938 406.13125 11.8125 406.875 C11.17957031 407.47054688 10.54664063 408.06609375 9.89453125 408.6796875 C7.50696353 410.34360068 5.90102125 410.71496459 3 411 C0.34716797 410.07885742 0.34716797 410.07885742 -2.5078125 408.60546875 C-4.11462891 407.78852539 -4.11462891 407.78852539 -5.75390625 406.95507812 C-6.86636719 406.37177734 -7.97882813 405.78847656 -9.125 405.1875 C-10.18332031 404.64673828 -11.24164063 404.10597656 -12.33203125 403.54882812 C-17.37570894 400.96133194 -22.3920799 398.32365389 -27.40136719 395.67041016 C-38.85229564 389.60950969 -50.39320488 383.75617891 -62 378 C-72.68472291 372.70110604 -83.32026479 367.3363268 -93.85791016 361.75 C-102.82657492 357.00918195 -111.91220619 352.50692603 -121 348 C-131.86639812 342.61100752 -142.68158559 337.15213681 -153.3984375 331.47067261 C-160.46426007 327.73231404 -167.62396991 324.2048165 -174.84375 320.7734375 C-175.7409375 320.33515625 -176.638125 319.896875 -177.5625 319.4453125 C-178.34753906 319.06906738 -179.13257813 318.69282227 -179.94140625 318.30517578 C-182.50839097 316.67767337 -183.50531538 315.68802824 -185 313 C-185.46479666 309.82336677 -185.43742152 306.66400044 -185.43237305 303.45800781 C-185.44766052 302.00872643 -185.44766052 302.00872643 -185.46325684 300.53016663 C-185.49344211 297.33776085 -185.50266137 294.14565487 -185.51171875 290.953125 C-185.5285613 288.73922728 -185.54671097 286.52533914 -185.56611633 284.3114624 C-185.61366827 278.48523962 -185.64344416 272.65905571 -185.66955566 266.83270264 C-185.69933489 260.88708824 -185.74587429 254.94160784 -185.79101562 248.99609375 C-185.87710792 237.33079918 -185.94442694 225.66547708 -186 214 C-186.94715378 213.4989122 -187.89430756 212.9978244 -188.87016296 212.48155212 C-192.46617693 210.57899987 -196.06199476 208.67607715 -199.65776062 206.77305603 C-201.19870443 205.95759011 -202.73969779 205.14221781 -204.28074646 204.32695007 C-239.03078393 185.94263387 -239.03078393 185.94263387 -248 181 C-249.38614502 180.2726062 -249.38614502 180.2726062 -250.80029297 179.53051758 C-251.88914795 178.77291138 -251.88914795 178.77291138 -253 178 C-253.61328125 174.5703125 -253.61328125 174.5703125 -253 171 C-251.04296875 168.8046875 -251.04296875 168.8046875 -248.1875 166.875 C-247.65616455 166.50576416 -247.1248291 166.13652832 -246.57739258 165.75610352 C-245.38440719 164.9320515 -244.18360204 164.11924319 -242.9765625 163.31591797 C-240.89630883 161.93096647 -238.83777976 160.51757456 -236.78125 159.09765625 C-233.62986501 156.92634585 -230.47029862 154.76770136 -227.3046875 152.6171875 C-221.44994574 148.63348022 -215.62824642 144.60285926 -209.8125 140.5625 C-208.37910278 139.56947876 -208.37910278 139.56947876 -206.91674805 138.55639648 C-201.52776358 134.80949799 -196.21568162 130.98496295 -191 127 C-191.67015137 126.68998047 -192.34030273 126.37996094 -193.03076172 126.06054688 C-193.98740723 125.61775391 -194.94405273 125.17496094 -195.9296875 124.71875 C-197.01983154 124.21424316 -198.10997559 123.70973633 -199.2331543 123.18994141 C-201.69009066 122.05135604 -204.14438181 120.90729609 -206.59692383 119.75927734 C-213.04728167 116.74329137 -219.50782538 113.76056668 -226.01831055 110.87615967 C-229.14987485 109.484684 -232.27162759 108.07199126 -235.39239502 106.65649414 C-236.92010393 105.96989253 -238.45217548 105.29291514 -239.98846436 104.62573242 C-242.15399805 103.68378251 -244.30195925 102.70931557 -246.44921875 101.7265625 C-247.09897171 101.45393585 -247.74872467 101.1813092 -248.41816711 100.90042114 C-250.2097168 100.05712891 -250.2097168 100.05712891 -253 98 C-254.04760742 94.42138672 -254.04760742 94.42138672 -254 91 C-252.00151915 88.76848075 -250.48409467 87.58258063 -248 86 C-246.75234863 85.17048828 -246.75234863 85.17048828 -245.47949219 84.32421875 C-242.46529917 82.34872143 -239.4239986 80.42131207 -236.375 78.5 C-234.68113617 77.42467094 -232.98727663 76.34933474 -231.29400635 75.27307129 C-230.15509326 74.54922965 -229.01589213 73.82584103 -227.87640381 73.10290527 C-222.89288356 69.93944857 -217.94212445 66.72759291 -213 63.5 C-205.52589922 58.62578487 -198.01969485 53.8035528 -190.5 49 C-180.40220536 42.5488876 -170.34301498 36.04115736 -160.30371094 29.49951172 C-155.88659711 26.62436196 -151.46649083 23.75364457 -147.03173828 20.90576172 C-143.68193308 18.75271497 -140.35934438 16.5728629 -137.078125 14.31640625 C-136.45276855 13.89391602 -135.82741211 13.47142578 -135.18310547 13.03613281 C-133.49759269 11.89546443 -131.82257306 10.7393332 -130.1484375 9.58203125 C-126.34303352 7.66988657 -124.23219952 7.6714165 -120 8 C-117.46685078 8.92856128 -115.2199356 9.87850168 -112.828125 11.078125 C-112.15582855 11.40122147 -111.4835321 11.72431793 -110.79086304 12.0572052 C-109.35103444 12.75069267 -107.91407089 13.45015506 -106.47979736 14.15505981 C-103.4663647 15.63480348 -100.43785307 17.08231658 -97.40969849 18.53163147 C-95.86773122 19.26989318 -94.32645264 20.009595 -92.78585815 20.75071716 C-85.44085743 24.28261771 -78.05350711 27.71013756 -70.625 31.0625 C-69.50383789 31.58038086 -68.38267578 32.09826172 -67.22753906 32.63183594 C-66.1959668 33.09493164 -65.16439453 33.55802734 -64.1015625 34.03515625 C-63.20775879 34.4412915 -62.31395508 34.84742676 -61.39306641 35.26586914 C-58.68815955 36.09566458 -57.59473605 36.05408042 -55 35 C-53.14880793 33.92551404 -53.14880793 33.92551404 -51.33984375 32.55078125 C-50.63819092 32.0393457 -49.93653809 31.52791016 -49.21362305 31.00097656 C-48.46250244 30.4437793 -47.71138184 29.88658203 -46.9375 29.3125 C-46.14964111 28.7359668 -45.36178223 28.15943359 -44.55004883 27.56542969 C-42.02813829 25.71727402 -39.51327365 23.85988037 -37 22 C-35.34900617 20.77988319 -33.69796503 19.55983038 -32.046875 18.33984375 C-31.24080811 17.74397461 -30.43474121 17.14810547 -29.60424805 16.53417969 C-26.46327248 14.2153344 -23.31703668 11.90372233 -20.16845703 9.59521484 C-18.77005545 8.56648753 -17.37493262 7.533281 -15.98388672 6.49462891 C-14.20746221 5.16975237 -12.41868642 3.86385837 -10.625 2.5625 C-9.64789063 1.84191406 -8.67078125 1.12132812 -7.6640625 0.37890625 C-4.39688565 -1.31216916 -3.47911174 -0.93540953 0 0 Z M-11.0625 16.1875 C-12.50012271 17.28930096 -13.93897263 18.38950212 -15.37890625 19.48828125 C-16.13187988 20.06400879 -16.88485352 20.63973633 -17.66064453 21.23291016 C-22.28243791 24.72409577 -27.00046667 28.08266789 -31.70727539 31.45776367 C-36.51741522 34.91242358 -41.27600999 38.42839652 -46 42 C-42.45163005 44.99903353 -38.45066856 46.71264213 -34.22265625 48.52734375 C-33.44149948 48.86785263 -32.66034271 49.20836151 -31.85551453 49.55918884 C-30.15567154 50.29958204 -28.45480682 51.03763285 -26.75305176 51.77362061 C-22.0975857 53.787483 -17.44990566 55.81920802 -12.80078125 57.84765625 C-11.82930145 58.27091187 -10.85782166 58.69416748 -9.85690308 59.13024902 C0.53486668 63.66064505 10.89385398 68.26388998 21.25 72.875 C23.12774177 73.71042438 25.00550883 74.54579194 26.88330078 75.38110352 C32.58932331 77.91971145 38.2947076 80.45975168 44 83 C47.90748006 84.73974516 51.81502826 86.47933712 55.72265625 88.21875 C56.68708649 88.64808334 57.65151672 89.07741669 58.64517212 89.51976013 C63.41216057 91.64131433 68.1801279 93.76062089 72.95019531 95.87524414 C73.86459381 96.28060898 74.77899231 96.68597382 75.72109985 97.10362244 C77.53271853 97.90667686 79.34438375 98.70962632 81.15609741 99.51246643 C86.24806257 101.77119496 91.33192886 104.04684728 96.4082489 106.34051514 C99.40764406 107.69376961 102.41148685 109.03693171 105.41635132 110.37799072 C106.78817229 110.99324772 108.1578945 111.61320928 109.52529907 112.23822021 C111.37596348 113.0836867 113.23466622 113.91149239 115.09375 114.73828125 C116.12177734 115.20274658 117.14980469 115.66721191 118.20898438 116.14575195 C121.33861171 117.10363912 122.91704052 117.01303319 126 116 C128.80789883 114.1544847 128.80789883 114.1544847 131.6875 111.75 C132.83386643 110.83723656 133.98243055 109.92722859 135.1328125 109.01953125 C135.7505957 108.53178223 136.36837891 108.0440332 137.00488281 107.54150391 C140.62241046 104.74646358 144.34597923 102.09862091 148.0625 99.4375 C155.11029821 94.37912567 162.08918177 89.24409148 169 84 C165.85525818 80.56546353 162.12443069 79.16143398 157.8828125 77.4375 C156.64209488 76.92249939 156.64209488 76.92249939 155.37631226 76.39709473 C153.57652786 75.65102483 151.77532646 74.90836626 149.97290039 74.16870117 C146.08363864 72.57265351 142.20109438 70.96054938 138.31793213 69.34973145 C136.28163698 68.50534088 134.24496873 67.66184956 132.20794678 66.81921387 C122.54733463 62.82170604 112.91551343 58.75754857 103.28823853 54.68054199 C83.14006442 46.14979206 62.96574328 37.68212409 42.77523804 29.25210571 C37.52203084 27.05762767 32.27296431 24.8535637 27.0269928 22.6418457 C23.651051 21.21916154 20.27343061 19.80049216 16.89553833 18.38244629 C15.31228542 17.71660753 13.72981067 17.04891504 12.14816284 16.37927246 C9.9861882 15.4641589 7.82158903 14.55555531 5.65625 13.6484375 C5.02094864 13.37754303 4.38564728 13.10664856 3.73109436 12.82754517 C-3.11861746 9.97549353 -5.53703158 11.87139448 -11.0625 16.1875 Z M-128.3046875 21.60546875 C-129.18745361 22.16991699 -130.07021973 22.73436523 -130.97973633 23.31591797 C-131.93517334 23.93354004 -132.89061035 24.55116211 -133.875 25.1875 C-134.86588623 25.82316895 -135.85677246 26.45883789 -136.87768555 27.11376953 C-144.01864049 31.70141625 -151.13611168 36.32544675 -158.24560547 40.96166992 C-164.97314379 45.34544196 -171.73288011 49.67763253 -178.5 54 C-186.81171628 59.30937093 -195.10737644 64.64112457 -203.35839844 70.04443359 C-207.55805491 72.78826595 -211.77647485 75.49647837 -216.03112793 78.15447998 C-218.3667188 79.61388116 -220.69769371 81.08058231 -223.02880859 82.54711914 C-224.72405646 83.60875309 -226.42643948 84.65896585 -228.12890625 85.70898438 C-229.15371094 86.35416016 -230.17851562 86.99933594 -231.234375 87.6640625 C-232.15444336 88.23592285 -233.07451172 88.8077832 -234.02246094 89.39697266 C-234.67504883 89.92597168 -235.32763672 90.4549707 -236 91 C-236 91.99 -236 92.98 -236 94 C-228.38040673 97.70808077 -220.75245912 101.39802139 -213.11175537 105.06237793 C-209.78841191 106.65681724 -206.46797849 108.25660518 -203.15527344 109.87304688 C-199.61275294 111.6015043 -196.05711537 113.30176427 -192.5 115 C-191.41605957 115.53399414 -190.33211914 116.06798828 -189.21533203 116.61816406 C-188.20583496 117.09479492 -187.19633789 117.57142578 -186.15625 118.0625 C-185.27775391 118.48660156 -184.39925781 118.91070312 -183.49414062 119.34765625 C-180.25206983 120.19562152 -178.92784435 119.54225718 -176 118 C-174.64381131 117.20192113 -173.31263896 116.36001725 -172.0078125 115.48046875 C-171.23735596 114.96427979 -170.46689941 114.44809082 -169.6730957 113.91625977 C-168.83222412 113.34576904 -167.99135254 112.77527832 -167.125 112.1875 C-166.21645264 111.57640381 -165.30790527 110.96530762 -164.37182617 110.33569336 C-161.24416802 108.22924786 -158.12181673 106.11509205 -155 104 C-153.84432282 103.21829948 -152.6885592 102.43672674 -151.53271484 101.65527344 C-145.13023135 97.32620275 -138.73171432 92.99131597 -132.3359375 88.65234375 C-126.63605905 84.78555362 -120.93279805 80.92380904 -115.2265625 77.06640625 C-114.49782425 76.57377289 -113.769086 76.08113953 -113.01826477 75.57357788 C-111.55190436 74.58233031 -110.08553984 73.59108883 -108.61917114 72.59985352 C-95.05750087 63.431892 -81.51293358 54.23970796 -68 45 C-71.76787034 41.79727885 -76.07335795 39.97265264 -80.53515625 37.9453125 C-81.3690538 37.5618869 -82.20295135 37.1784613 -83.06211853 36.78341675 C-85.72688092 35.55945762 -88.39462687 34.34216138 -91.0625 33.125 C-92.83027707 32.31423573 -94.59785729 31.50304208 -96.36523438 30.69140625 C-99.74429899 29.14053278 -103.12532421 27.5940785 -106.50830078 26.05175781 C-109.21940683 24.81555652 -111.92696281 23.57257569 -114.62841797 22.31542969 C-115.61600098 21.85813477 -116.60358398 21.40083984 -117.62109375 20.9296875 C-118.43892334 20.54796387 -119.25675293 20.16624023 -120.09936523 19.77294922 C-123.71529157 18.30242606 -125.17540977 19.59443343 -128.3046875 21.60546875 Z M-52 52 C-52 94.9 -52 137.8 -52 182 C-25.09180721 195.19343925 -25.09180721 195.19343925 2 208 C6.61660208 206.15937288 6.61660208 206.15937288 10.46875 203.5234375 C11.11102539 203.02610107 11.75330078 202.52876465 12.41503906 202.01635742 C13.10307617 201.47470947 13.79111328 200.93306152 14.5 200.375 C16.02573177 199.1910068 17.55178813 198.00743179 19.078125 196.82421875 C19.88056641 196.19950684 20.68300781 195.57479492 21.50976562 194.93115234 C25.7347451 191.65472219 29.99378241 188.42317693 34.25 185.1875 C36.0352892 183.82829961 37.82044426 182.46892301 39.60546875 181.109375 C40.49669434 180.43068359 41.38791992 179.75199219 42.30615234 179.05273438 C44.97225934 177.02113861 47.63675797 174.98745214 50.30078125 172.953125 C58.90118705 166.38825219 67.51975933 159.85077247 76.1875 153.375 C83.49594452 147.91364979 90.73252284 142.36796085 97.91479492 136.74169922 C98.59775635 136.20689941 99.28071777 135.67209961 99.984375 135.12109375 C100.64115234 134.60530762 101.29792969 134.08952148 101.97460938 133.55810547 C104.78118586 131.39904434 107.65549495 129.33497507 110.54003906 127.28149414 C111.02182617 126.85860107 111.50361328 126.43570801 112 126 C112 125.34 112 124.68 112 124 C83.16444627 110.87294836 83.16444627 110.87294836 54.1875 98.0625 C42.45418992 92.9583933 30.74930368 87.79345988 19.05938721 82.59066772 C16.20307728 81.31943285 13.34646242 80.04888577 10.48974609 78.77856445 C2.59978396 75.26995001 -5.29013702 71.76124648 -13.17871094 68.24951172 C-18.21927185 66.00606688 -23.26156337 63.76655231 -28.30502319 61.52963257 C-30.21905416 60.67992708 -32.13249172 59.82888356 -34.0453186 58.97647095 C-36.68886982 57.79861139 -39.33439962 56.62531469 -41.98046875 55.453125 C-42.76779388 55.10104477 -43.55511902 54.74896454 -44.36630249 54.38621521 C-48.04186728 52.62530156 -48.04186728 52.62530156 -52 52 Z M-67.80859375 57.12890625 C-69.36719116 58.16857544 -69.36719116 58.16857544 -70.95727539 59.22924805 C-72.11743223 60.00687642 -73.27750426 60.78463133 -74.4375 61.5625 C-75.65025475 62.37353527 -76.86306526 63.18448716 -78.07592773 63.99536133 C-91.19685999 72.77562492 -104.26786717 81.63004695 -117.33708191 90.48701477 C-122.6787155 94.10652313 -128.02414928 97.72037401 -133.37109375 101.33203125 C-135.67246045 102.88697534 -137.97379035 104.44197387 -140.27511597 105.99697876 C-141.73646879 106.98419621 -143.19799103 107.97116293 -144.65969849 108.95785522 C-152.48577784 114.24108137 -160.29119105 119.54608642 -168 125 C-165.31112306 127.11656137 -162.67040724 128.77933613 -159.59643555 130.27734375 C-158.29678108 130.91446289 -158.29678108 130.91446289 -156.97087097 131.56445312 C-156.03560074 132.01755859 -155.10033051 132.47066406 -154.13671875 132.9375 C-153.15371292 133.41767578 -152.17070709 133.89785156 -151.15791321 134.39257812 C-148.00301418 135.93232908 -144.84526578 137.46613839 -141.6875 139 C-139.63588906 140.00093599 -137.58445505 141.00223472 -135.53320312 142.00390625 C-124.39603533 147.43636589 -113.23411001 152.8154497 -102.0511322 158.15292358 C-96.53186797 160.7873179 -91.01854537 163.43319399 -85.515625 166.1015625 C-84.58626884 166.55193878 -84.58626884 166.55193878 -83.63813782 167.01141357 C-81.20919589 168.18888757 -78.78057572 169.36701865 -76.35302734 170.54736328 C-74.51217744 171.44205694 -72.67024707 172.33449178 -70.828125 173.2265625 C-69.7752832 173.73783691 -68.72244141 174.24911133 -67.63769531 174.77587891 C-64.98170817 176.06860711 -64.98170817 176.06860711 -62 177 C-62 136.41 -62 95.82 -62 54 C-64.076496 54 -66.17664605 56.03848358 -67.80859375 57.12890625 Z M118.0625 133.9375 C113.3498647 137.89635878 108.54108718 141.63905022 103.6015625 145.30859375 C99.03671652 148.70657564 94.52215939 152.17055555 90 155.625 C82.96517183 160.99598653 75.90374513 166.32876097 68.8125 171.625 C61.55312378 177.04955746 54.37403898 182.56781301 47.23242188 188.14624023 C36.32526715 196.66106965 25.17055662 204.83572706 14 213 C17.01568092 215.4009511 20.09580151 217.18494735 23.53125 218.92675781 C24.63919922 219.49033997 25.74714844 220.05392212 26.88867188 220.63458252 C28.09222521 221.24120541 29.29600686 221.8473755 30.5 222.453125 C31.74023486 223.07899888 32.98046923 223.70487373 34.22070312 224.33074951 C36.81486263 225.63830716 39.41084773 226.94216452 42.0078125 228.24414062 C45.33559815 229.91353628 48.65569397 231.59766339 51.97424316 233.28532791 C54.53012602 234.58187768 57.0913002 235.86768726 59.65405273 237.15059662 C60.88085329 237.76702394 62.10565141 238.38745333 63.32836914 239.01194 C65.0361219 239.88285036 66.75227377 240.73723161 68.46875 241.59082031 C69.92958008 242.3267038 69.92958008 242.3267038 71.41992188 243.07745361 C74.2376459 244.08497393 75.28184538 244.14336086 78 243 C79.98727448 241.63213574 81.91821324 240.18148466 83.8125 238.6875 C84.37654541 238.245271 84.94059082 237.80304199 85.52172852 237.34741211 C87.35432003 235.90628202 89.17811614 234.45463798 91 233 C91.60875977 232.51499023 92.21751953 232.02998047 92.84472656 231.53027344 C95.9820034 229.02872974 99.11349324 226.52007854 102.2421875 224.0078125 C108.69510742 218.83283031 115.2173828 213.74561833 121.72949219 208.64550781 C128.34563308 203.46230437 134.94277781 198.25762306 141.5 193 C148.04831622 187.74951781 154.63671757 182.55227957 161.24414062 177.37646484 C163.66657832 175.47745154 166.08574276 173.57428764 168.50512695 171.67138672 C174.32276609 167.09617464 180.15034165 162.53425899 186 158 C183.83400215 155.60841219 181.88256017 154.30018821 178.93432617 153.01049805 C177.71110909 152.46929573 177.71110909 152.46929573 176.46318054 151.91716003 C175.58201065 151.53586441 174.70084076 151.15456879 173.79296875 150.76171875 C172.87598709 150.35846878 171.95900543 149.95521881 171.01423645 149.53974915 C168.07482974 148.24907313 165.13124805 146.96823876 162.1875 145.6875 C160.24777052 144.83721871 158.30831433 143.98631368 156.36914062 143.13476562 C151.74799011 141.10765535 147.12128453 139.09364626 142.49212646 137.0848999 C140.19024007 136.0828174 137.89258203 135.07172698 135.59619141 134.05712891 C134.33111411 133.50279406 133.06598218 132.94858386 131.80078125 132.39453125 C130.73641846 131.9250708 129.67205566 131.45561035 128.57543945 130.97192383 C123.52348176 129.06540723 121.92842019 130.61655534 118.0625 133.9375 Z M-184.76171875 136.11328125 C-185.70756836 136.7786792 -186.65341797 137.44407715 -187.62792969 138.12963867 C-188.63758789 138.84998291 -189.64724609 139.57032715 -190.6875 140.3125 C-192.79012719 141.79460768 -194.89299251 143.27637758 -196.99609375 144.7578125 C-198.02589355 145.48645508 -199.05569336 146.21509766 -200.11669922 146.96582031 C-203.80751771 149.56970682 -207.52307107 152.13568519 -211.25 154.6875 C-211.86254639 155.10789551 -212.47509277 155.52829102 -213.10620117 155.96142578 C-215.07002057 157.30875956 -217.03487328 158.65457371 -219 160 C-219.83208984 160.56976563 -220.66417969 161.13953125 -221.52148438 161.7265625 C-227.01303697 165.48625619 -232.50593345 169.24398104 -238 173 C-234.37516584 176.08683557 -230.74800426 178.32149063 -226.50390625 180.46875 C-225.88278458 180.78555222 -225.2616629 181.10235443 -224.62171936 181.42875671 C-223.29346219 182.10584534 -221.96397324 182.78052215 -220.63336182 183.45297241 C-217.11232122 185.23321029 -213.60111321 187.03261681 -210.08984375 188.83203125 C-209.39028564 189.1901741 -208.69072754 189.54831696 -207.9699707 189.91731262 C-202.13534105 192.91229499 -196.36649829 196.01755208 -190.625 199.1875 C-182.97409777 203.40730912 -175.26313785 207.49036954 -167.5 211.5 C-158.70271242 216.04429871 -149.98408387 220.70831961 -141.30859375 225.48046875 C-134.42351477 229.25487895 -127.4758372 232.89645979 -120.5 236.5 C-112.44866085 240.65977578 -104.44747492 244.89497072 -96.5 249.25 C-95.1553064 249.98307373 -95.1553064 249.98307373 -93.78344727 250.73095703 C-89.51235523 253.06192918 -85.25792633 255.41655326 -81.02734375 257.8203125 C-79.49752821 258.67211278 -77.96758745 259.52368823 -76.4375 260.375 C-75.75300781 260.77493164 -75.06851563 261.17486328 -74.36328125 261.58691406 C-71.57739722 263.11943225 -69.70382541 264.11234772 -66.50390625 263.6015625 C-62.94063184 261.32240102 -59.73371865 258.72110803 -56.5 256 C-55.06493419 254.81243271 -53.62872221 253.62624919 -52.19140625 252.44140625 C-51.12623779 251.56186279 -51.12623779 251.56186279 -50.03955078 250.66455078 C-47.21644151 248.36050972 -44.33589159 246.14631143 -41.4375 243.9375 C-36.12611597 239.8851107 -30.89708594 235.74137963 -25.68896484 231.55737305 C-19.16614634 226.32027794 -12.587034 221.15595265 -6 216 C-8.68845987 213.87701096 -11.3042115 212.24802735 -14.40234375 210.79296875 C-15.27745605 210.37861572 -16.15256836 209.9642627 -17.05419922 209.53735352 C-18.00568848 209.09190186 -18.95717773 208.6464502 -19.9375 208.1875 C-22.02243598 207.20115591 -24.10705657 206.21414496 -26.19140625 205.2265625 C-27.29758301 204.70352539 -28.40375977 204.18048828 -29.54345703 203.64160156 C-34.88728849 201.10367793 -40.21277589 198.52793611 -45.53799438 195.95126343 C-48.62103461 194.45965481 -51.70501682 192.96999714 -54.7890625 191.48046875 C-55.39629654 191.18717178 -56.00353058 190.89387482 -56.62916565 190.59169006 C-62.66516139 187.67719776 -68.70676118 184.77443736 -74.75 181.875 C-75.7714209 181.38491455 -76.7928418 180.8948291 -77.84521484 180.38989258 C-82.88045912 177.97455758 -87.9165128 175.56091853 -92.953125 173.1484375 C-104.85912679 167.44287422 -116.74780315 161.70270869 -128.625 155.9375 C-138.40778169 151.18977552 -148.1934851 146.4485828 -158 141.75 C-158.89412598 141.32066162 -159.78825195 140.89132324 -160.70947266 140.44897461 C-163.13509903 139.28930795 -165.56535873 138.14060723 -168 137 C-168.82886719 136.61005859 -169.65773438 136.22011719 -170.51171875 135.81835938 C-171.31222656 135.45033203 -172.11273438 135.08230469 -172.9375 134.703125 C-173.64777344 134.37473633 -174.35804688 134.04634766 -175.08984375 133.70800781 C-179.35858096 132.1257816 -181.29507106 133.65351628 -184.76171875 136.11328125 Z M-174 220 C-174 249.37 -174 278.74 -174 309 C-161.46 315.27 -148.92 321.54 -136 328 C-125.375 333.5625 -125.375 333.5625 -121.14453125 335.81640625 C-113.18132517 340.04189802 -105.07557223 343.99506685 -97 348 C-87.11900133 352.90030155 -77.26068536 357.82566125 -67.515625 362.9921875 C-57.67799338 368.20773061 -47.72463544 373.1777794 -37.75 378.125 C-34.34770049 379.81258706 -30.94646924 381.50228189 -27.546875 383.1953125 C-26.73480591 383.59937317 -25.92273682 384.00343384 -25.08605957 384.41973877 C-19.16113041 387.38250318 -13.30398755 390.45823714 -7.50360107 393.65823364 C-4.43208411 395.44136328 -4.43208411 395.44136328 -1 396 C-1 339.9 -1 283.8 -1 226 C-5.06153658 228.43692195 -8.69420175 231.00058737 -12.375 233.9375 C-12.9836792 234.41912598 -13.5923584 234.90075195 -14.21948242 235.39697266 C-17.37380308 237.89671431 -20.51559089 240.41185734 -23.65234375 242.93359375 C-30.95595773 248.80445539 -38.30412413 254.60269275 -45.77978516 260.25390625 C-49.15443459 262.80643611 -52.49264585 265.38166389 -55.75390625 268.078125 C-56.33640137 268.55169434 -56.91889648 269.02526367 -57.51904297 269.51318359 C-59.07844431 270.78598733 -60.62377572 272.07597498 -62.16796875 273.3671875 C-65.76567894 275.44145351 -67.02844678 274.96552614 -71 274 C-73.81054688 272.79174805 -73.81054688 272.79174805 -76.71875 271.26171875 C-77.80430176 270.69509521 -78.88985352 270.12847168 -80.00830078 269.54467773 C-81.16056152 268.93180908 -82.31282227 268.31894043 -83.5 267.6875 C-84.71439145 267.04900954 -85.9290765 266.41107722 -87.14404297 265.77368164 C-95.40652602 261.42704692 -103.60984082 256.97255598 -111.7890625 252.47143555 C-119.67427427 248.14273508 -127.65133732 244.00225627 -135.64453125 239.87719727 C-143.77840443 235.66746094 -151.82897352 231.31893397 -159.83398438 226.86914062 C-160.67509766 226.40443359 -161.51621094 225.93972656 -162.3828125 225.4609375 C-163.10871582 225.05665527 -163.83461914 224.65237305 -164.58251953 224.23583984 C-167.64734494 222.66907089 -170.83622861 221.35590203 -174 220 Z M9 223 C9 279.43 9 335.86 9 394 C14.41452695 389.41836016 14.41452695 389.41836016 19.4375 384.5625 C21.86926105 382.0872175 24.37075846 379.76449126 27 377.5 C29.60647609 375.2544206 32.08934521 372.95448488 34.5 370.5 C36.89053167 368.06610268 39.35046262 365.78644441 41.9375 363.5625 C44.74576347 361.14382221 47.39970593 358.64100317 50 356 C53.2215855 352.72797872 56.58592145 349.70683945 60.06640625 346.71484375 C62.56431556 344.4995262 64.88024989 342.1310183 67.21875 339.75 C69.71896185 337.29365151 72.37680516 335.03690632 75.03125 332.75 C76.93023071 331.06201714 78.72005988 329.31230266 80.5 327.5 C82.89053167 325.06610268 85.35046262 322.78644441 87.9375 320.5625 C90.74576347 318.14382221 93.39970593 315.64100317 96 313 C99.21515997 309.73450484 102.57089808 306.71769377 106.046875 303.734375 C108.63953956 301.43208887 111.05222488 298.97666918 113.45703125 296.48046875 C115 295 115 295 118 293 C118.44046971 290.04914371 118.44046971 290.04914371 118.34057617 286.53076172 C118.34101425 285.86722687 118.34145233 285.20369202 118.34190369 284.52005005 C118.33981068 282.322965 118.31645699 280.12663951 118.29296875 277.9296875 C118.28737458 276.4079734 118.28310364 274.8862539 118.28010559 273.36453247 C118.26864261 269.35635501 118.2391633 265.34850288 118.20599365 261.3404541 C118.17532384 257.25175376 118.16160689 253.16300093 118.14648438 249.07421875 C118.11429467 241.04932975 118.06308116 233.02470532 118 225 C116.73620983 225.94534378 115.47276924 226.89115492 114.20947266 227.8371582 C113.50585602 228.36380569 112.80223938 228.89045319 112.07730103 229.43305969 C109.14492745 231.64499446 106.25700895 233.91057251 103.375 236.1875 C102.7874292 236.65019287 102.1998584 237.11288574 101.59448242 237.58959961 C99.07711489 239.57203907 96.56155482 241.55676328 94.04638672 243.54199219 C92.13577242 245.04969431 90.22415212 246.55611412 88.3125 248.0625 C87.72452637 248.52744873 87.13655273 248.99239746 86.53076172 249.47143555 C79.47831695 255.02768815 79.47831695 255.02768815 75.71688843 254.80995178 C71.91711891 253.98193928 68.99278275 252.794847 65.52978516 251.04077148 C64.92564789 250.73826477 64.32151062 250.43575806 63.69906616 250.12408447 C61.72421096 249.13240221 59.75677774 248.12685771 57.7890625 247.12109375 C56.41187764 246.42656223 55.03421467 245.73297804 53.65609741 245.04029846 C50.04521608 243.22252984 46.44033975 241.39316792 42.83679199 239.56091309 C37.73949005 236.97189218 32.63406343 234.39891774 27.52963257 231.82398987 C24.81322491 230.45363861 22.09907983 229.07895243 19.3866272 227.70079041 C18.15570579 227.07712819 16.92477955 226.45347551 15.69384766 225.82983398 C14.61575836 225.28213852 13.53766907 224.73444305 12.4269104 224.17015076 C10.29891942 222.92761513 10.29891942 222.92761513 9 223 Z " fill="#000000" transform="translate(282,51)"/>
</svg>
